<svg xmlns="http://www.w3.org/2000/svg" viewBox="0 0 440 236" width="440" height="236"
     role="img" aria-labelledby="obsTitle obsDesc">
  <title id="obsTitle">Named audience</title>
  <desc id="obsDesc">Most recent public interactions: HimanshuKarpe followed, CraigDaGama followed, yuvraj1207 followed, NamanGaonkar followed, KartikNaik205 followed.</desc>
  <defs>
    <style><![CDATA[
      .m { font-family: 'JetBrains Mono','Cascadia Code','Fira Code','SF Mono','Roboto Mono',Consolas,'Liberation Mono',monospace; }
      .cap { font-size: 8px; letter-spacing: 2.4px; font-weight: 700; fill: #4a5563; }
      .val { font-size: 24px; font-weight: 700; letter-spacing: -0.5px; }
      .lbl { font-size: 7px; letter-spacing: 1.5px; font-weight: 700; fill: #8b949e; }
      .sub { font-family: Inter,'Inter Tight','SF Pro Text','Segoe UI Variable Text','Segoe UI',Roboto,'Helvetica Neue',Arial,sans-serif; font-size: 8.5px; letter-spacing: 0.2px; fill: #4a5563; }
      .row { font-family: Inter,'Inter Tight','SF Pro Text','Segoe UI Variable Text','Segoe UI',Roboto,'Helvetica Neue',Arial,sans-serif; font-size: 10.5px; font-weight: 600; fill: #e6edf3; }
      .tiny { font-size: 8px; fill: #4a5563; }
      .rise { animation: rise .7s cubic-bezier(.2,.8,.3,1) both; }
      @keyframes rise { from { opacity: 0 } to { opacity: 1 } }
      @media (prefers-reduced-motion: reduce) { .rise { animation: none } }
    ]]></style>
    
    <clipPath id="frame"><rect width="440" height="236" rx="8"/></clipPath>
  </defs>
  <g clip-path="url(#frame)">
    <rect width="440" height="236" fill="#0d1117"/>
    <g stroke="#8ecae6" stroke-width="0.3" opacity="0.06"><path d="M0 30 H440"/><path d="M0 60 H440"/><path d="M0 90 H440"/><path d="M0 120 H440"/><path d="M0 150 H440"/><path d="M0 180 H440"/><path d="M0 210 H440"/><path d="M40 0 V236"/><path d="M80 0 V236"/><path d="M120 0 V236"/><path d="M160 0 V236"/><path d="M200 0 V236"/><path d="M240 0 V236"/><path d="M280 0 V236"/><path d="M320 0 V236"/><path d="M360 0 V236"/><path d="M400 0 V236"/></g>
    <g stroke="#8ecae6" stroke-width="1" fill="none" opacity="0.45">
      <path d="M10 22V10h12"/><path d="M418 10h12v12"/>
      <path d="M430 214v12h-12"/><path d="M22 226H10v-12"/>
    </g>
    <text class="m cap" x="24" y="34">NAMED AUDIENCE</text>
    <text class="m sub" x="416" y="34" text-anchor="end">4 STARS &#183; 8 FOLLOWERS</text>
    <path d="M24 46H416" stroke="#8ecae6" stroke-opacity="0.14"/>
    <g class="rise" style="animation-delay:0.00s">
      <circle cx="35" cy="71" r="11" fill="#3FCF8E" opacity="0.16"/>
      <circle cx="35" cy="71" r="11" fill="none" stroke="#3FCF8E" stroke-opacity="0.45"/>
      <text class="m" x="35" y="75" text-anchor="middle" font-size="9"
            font-weight="700" fill="#3FCF8E">HI</text>
      <text class="m row" x="56" y="69">@HimanshuKarpe</text>
      <text class="m tiny" x="56" y="80" fill="#3FCF8E">FOLLOWED</text>
      <text class="m tiny" x="416" y="69" text-anchor="end">Aug 23, 2026</text>
    </g>
    <g class="rise" style="animation-delay:0.06s">
      <circle cx="35" cy="105" r="11" fill="#3FCF8E" opacity="0.16"/>
      <circle cx="35" cy="105" r="11" fill="none" stroke="#3FCF8E" stroke-opacity="0.45"/>
      <text class="m" x="35" y="109" text-anchor="middle" font-size="9"
            font-weight="700" fill="#3FCF8E">CR</text>
      <text class="m row" x="56" y="103">@CraigDaGama</text>
      <text class="m tiny" x="56" y="114" fill="#3FCF8E">FOLLOWED</text>
      <text class="m tiny" x="416" y="103" text-anchor="end">Aug 23, 2026</text>
    </g>
    <g class="rise" style="animation-delay:0.12s">
      <circle cx="35" cy="139" r="11" fill="#3FCF8E" opacity="0.16"/>
      <circle cx="35" cy="139" r="11" fill="none" stroke="#3FCF8E" stroke-opacity="0.45"/>
      <text class="m" x="35" y="143" text-anchor="middle" font-size="9"
            font-weight="700" fill="#3FCF8E">YU</text>
      <text class="m row" x="56" y="137">@yuvraj1207</text>
      <text class="m tiny" x="56" y="148" fill="#3FCF8E">FOLLOWED</text>
      <text class="m tiny" x="416" y="137" text-anchor="end">Aug 23, 2026</text>
    </g>
    <g class="rise" style="animation-delay:0.18s">
      <circle cx="35" cy="173" r="11" fill="#3FCF8E" opacity="0.16"/>
      <circle cx="35" cy="173" r="11" fill="none" stroke="#3FCF8E" stroke-opacity="0.45"/>
      <text class="m" x="35" y="177" text-anchor="middle" font-size="9"
            font-weight="700" fill="#3FCF8E">NA</text>
      <text class="m row" x="56" y="171">@NamanGaonkar</text>
      <text class="m tiny" x="56" y="182" fill="#3FCF8E">FOLLOWED</text>
      <text class="m tiny" x="416" y="171" text-anchor="end">Aug 23, 2026</text>
    </g>
    <g class="rise" style="animation-delay:0.24s">
      <circle cx="35" cy="207" r="11" fill="#3FCF8E" opacity="0.16"/>
      <circle cx="35" cy="207" r="11" fill="none" stroke="#3FCF8E" stroke-opacity="0.45"/>
      <text class="m" x="35" y="211" text-anchor="middle" font-size="9"
            font-weight="700" fill="#3FCF8E">KA</text>
      <text class="m row" x="56" y="205">@KartikNaik205</text>
      <text class="m tiny" x="56" y="216" fill="#3FCF8E">FOLLOWED</text>
      <text class="m tiny" x="416" y="205" text-anchor="end">Aug 23, 2026</text>
    </g>
    <text class="m tiny" x="24" y="218">STARS, FORKS AND FOLLOWS ARE PUBLIC. PLAIN VISITORS ARE NOT.</text>

  </g>
  <rect width="439" height="235" x="0.5" y="0.5" rx="8" fill="none"
        stroke="#8ecae6" stroke-opacity="0.18"/>
</svg>
