<svg xmlns="http://www.w3.org/2000/svg" width="196" height="44" viewBox="0 0 196 44" fill="none" role="img" aria-label="email: joeldlima123@gmail.com"><title>email: joeldlima123@gmail.com</title><rect x="0.5" y="0.5" width="195" height="43" rx="8" fill="#0a0f22" stroke="#1e2a4a" stroke-width="1" /><rect x="1.5" y="1.5" width="193" height="41" rx="7" fill="#e879f9" fill-opacity="0.04" /><g transform="translate(14 14) scale(0.6667000000000001)"><path d="M24 5.457v13.909c0 .904-.732 1.636-1.636 1.636h-3.819V11.73L12 16.64l-6.545-4.91v9.273H1.636A1.636 1.636 0 0 1 0 19.366V5.457c0-2.023 2.309-3.178 3.927-1.964L5.455 4.64 12 9.548l6.545-4.91 1.528-1.145C21.69 2.28 24 3.434 24 5.457z" fill="#dbeafe" /></g><text x="38" y="20" font-family="'JetBrains Mono', ui-monospace, SFMono-Regular, Menlo, Consolas, monospace" font-size="10.5" font-weight="800" fill="#eef2ff" text-anchor="start">EMAIL</text><text x="38" y="33" font-family="'JetBrains Mono', ui-monospace, SFMono-Regular, Menlo, Consolas, monospace" font-size="9" font-weight="600" fill="#8e9bb8" text-anchor="start">joeldlima123@gmail.com</text></svg>
